<?xml version="1.0" encoding="UTF-8"?>
<svg version="1.1" xmlns="http://www.w3.org/2000/svg" width="141" height="141">
<path d="M0 0 C1.04027344 0.43570312 2.08054687 0.87140625 3.15234375 1.3203125 C10.26174987 4.60157686 16.15618477 8.82025469 22 14 C22.61359375 14.51949219 23.2271875 15.03898437 23.859375 15.57421875 C34.91847735 25.64408947 43.08985206 41.68996105 44.19287109 56.60864258 C44.58925809 70.31522434 44.43089327 82.29290994 39 95 C38.61585938 95.93714844 38.23171875 96.87429687 37.8359375 97.83984375 C34.89377468 104.33461813 30.67273727 109.6571415 26 115 C25.47921875 115.61617188 24.9584375 116.23234375 24.421875 116.8671875 C15.15319539 127.02528586 2.99251374 132.42466452 -10 136 C-10.61633301 136.17740723 -11.23266602 136.35481445 -11.86767578 136.53759766 C-29.485898 140.3581739 -48.21573788 136.58258469 -63.54296875 127.59765625 C-67.58223366 124.9711708 -71.34548814 122.13841667 -75 119 C-75.59296875 118.50242187 -76.1859375 118.00484375 -76.796875 117.4921875 C-87.84444751 107.40747682 -96.1742135 91.31845657 -97.17700195 76.35961914 C-97.72183545 51.24735338 -97.72183545 51.24735338 -93 40 C-92.34644531 38.43958984 -92.34644531 38.43958984 -91.6796875 36.84765625 C-88.39842314 29.73825013 -84.17974531 23.84381523 -79 18 C-78.48050781 17.38640625 -77.96101563 16.7728125 -77.42578125 16.140625 C-58.89084486 -4.21512378 -25.08478274 -10.53103004 0 0 Z " fill="#000000" transform="translate(97,4)"/>
<path d="M0 0 C7.42564572 4.67740238 12.19299525 10.11589895 16 18 C16.37253906 18.75796875 16.74507813 19.5159375 17.12890625 20.296875 C20.09648673 29.50568975 18.7877726 40.79133084 14.609375 49.34765625 C8.70071175 59.08547749 0.96544899 64.96218424 -10 68 C-12.65300337 68.21169042 -15.16464335 68.32519346 -17.8125 68.3125 C-18.8034668 68.33666992 -18.8034668 68.33666992 -19.81445312 68.36132812 C-25.29665491 68.36663519 -29.9065293 66.95527132 -35 65 C-35.56920166 65.60585937 -36.13840332 66.21171875 -36.72485352 66.8359375 C-38.85572903 69.08648136 -41.00223695 71.3205571 -43.16040039 73.54492188 C-44.54464574 74.98147112 -45.91018065 76.43597362 -47.27539062 77.890625 C-48.15517578 78.79296875 -49.03496094 79.6953125 -49.94140625 80.625 C-50.74263916 81.46289062 -51.54387207 82.30078125 -52.36938477 83.1640625 C-55.78235496 85.54601478 -57.92272335 85.46208935 -62 85 C-64 83.375 -64 83.375 -65 81 C-64.68277086 76.09402416 -63.47098933 73.86011558 -59.96484375 70.4765625 C-59.15595703 69.68378906 -58.34707031 68.89101562 -57.51367188 68.07421875 C-56.66353516 67.26597656 -55.81339844 66.45773438 -54.9375 65.625 C-54.08349609 64.79355469 -53.22949219 63.96210937 -52.34960938 63.10546875 C-50.24390066 61.05857871 -48.12742251 59.02427283 -46 57 C-47.70280846 52.66967916 -49.71211507 48.61497435 -51.87890625 44.5 C-55.28147361 36.91239333 -54.97958301 28.08301945 -52.375 20.3125 C-48.24581827 10.14167343 -41.32984647 2.81499693 -31.4375 -1.875 C-20.95127663 -5.92530378 -9.91984267 -5.28063805 0 0 Z " fill="#F8F8F8" transform="translate(96,29)"/>
<path d="M0 0 C5.68693781 2.96346851 8.83340167 7.26609295 11.9375 12.75 C14.01581413 19.56225186 13.97850223 25.15052316 11 31.6875 C7.50585676 37.98289689 2.96080963 42.21769762 -3.9375 44.4375 C-11.26825071 45.26954458 -18.18206203 45.59853992 -24.2578125 40.99609375 C-29.39439667 36.22982146 -33.41800345 31.8169767 -34.2734375 24.60546875 C-34.376823 16.71715513 -33.62258125 11.25095498 -28.03125 5.46484375 C-19.81751663 -1.99800728 -10.78067206 -4.27193298 0 0 Z " fill="#030303" transform="translate(88.9375,39.5625)"/>
<path d="M0 0 C1.9375 1.125 1.9375 1.125 3 3 C3.65088557 7.39347757 3.47438867 9.30998011 0.9375 13 C-2 15 -2 15 -5.625 15.0625 C-9 14 -9 14 -10.9375 12.375 C-12.45259656 8.98831357 -12.52368962 6.66582737 -12 3 C-8.31376997 -1.46815761 -5.41712863 -1.50475795 0 0 Z " fill="#1C3DA8" transform="translate(86,51)"/>
</svg>
