<svg xmlns="http://www.w3.org/2000/svg" width="150" height="50" viewBox="0 0 972 289" fill="none"><path d="M276.61 210.46L289.51 187.36C300.91 194.56 313.51 198.46 326.11 198.46C338.11 198.46 345.91 193.06 345.91 184.66C345.91 174.76 333.31 169.96 320.11 164.86C298.81 156.76 282.31 145.66 282.31 123.76C282.31 99.16 304.21 86.26 329.71 86.26C345.135 86.1626 360.289 90.3143 373.51 98.26L362.11 120.16C352.21 115.06 341.41 112.36 332.41 112.36C322.21 112.36 313.51 115.36 313.51 123.76C313.51 132.46 323.41 137.56 337.81 142.66C361.21 151.36 378.01 162.46 378.01 184.66C378.01 209.56 357.91 225.16 328.51 225.16C308.71 225.16 292.21 220.36 276.61 210.46Z" fill="black"></path><path d="M399.3 44C399.3 33.2 407.1 24.5 419.7 24.5C432.3 24.5 440.1 33.2 440.1 44.3C440.1 55.1 432 63.5 419.7 63.5C407.1 63.46 399.3 54.76 399.3 44ZM403.2 91.4H435.9V225.2H403.2V91.4Z" fill="black"></path><path d="M592.21 141.46V225.16H559.51V144.46C559.51 127.66 552.9 117.16 536.7 117.16C516.3 117.16 504 131.86 504 151.66V225.16H471.3V91.36H493.5L500.1 112.36C508.8 98.86 523.2 87.76 545.1 87.76C575.71 87.76 592.21 107.26 592.21 141.46Z" fill="black"></path><path d="M634.2 181.36V116.26L610.5 114.46V88.36H634.2L635.1 45.46H666.9V88.36H708.3V116.26H666.9V178.06C666.9 191.26 672.9 195.16 681.6 195.16C689.4 195.16 696.6 193.06 704.1 188.26L714.6 212.86C702.3 220.66 689.4 225.16 674.1 225.16C650.1 225.16 634.2 211.36 634.2 181.36Z" fill="black"></path><path d="M733.2 9.16H765.9L766.2 225.16H733.2V9.16Z" fill="#1E40AF"></path><path d="M926.4 88.36V89.26L847.49 288.16H812.69V287.56L842.4 218.86L785.09 89.26V88.36H820.49L848.99 156.76C852.534 165.263 855.539 173.98 857.99 182.86C860.69 172.96 863.4 164.86 866.1 156.76L892.19 88.36H926.4Z" fill="#1E40AF"></path><path d="M948.79 224.81C961.1 224.81 971.08 214.83 971.08 202.52C971.08 190.21 961.1 180.23 948.79 180.23C936.48 180.23 926.5 190.21 926.5 202.52C926.5 214.83 936.48 224.81 948.79 224.81Z" fill="black"></path><path d="M62.73 189.14C62.9752 188.892 63.1184 188.562 63.1314 188.214C63.1443 187.865 63.0261 187.525 62.8 187.26C38.33 158.84 28.19 120.81 37.87 84.84C53.19 27.84 106.15 -7.26999 164.38 1.28001C231.76 11.19 274.47 80.28 254.61 145.28C242.4 185.28 208.5 216.28 166.85 223.56C142.43 227.827 118.763 224.337 95.85 213.09C95.3727 212.859 94.835 212.785 94.3128 212.876C93.7907 212.968 93.3105 213.221 92.94 213.6C72.2733 234.74 53.6067 253.607 36.94 270.2C32.3133 274.733 28.3333 277.533 25 278.6C9.5 283.41 -5 267.2 1.74 252.12C2.79333 249.78 5.09 246.827 8.63 243.26C18.53 233.333 36.5633 215.293 62.73 189.14ZM220.83 112.6C220.832 97.9974 216.504 83.7221 208.392 71.5795C200.281 59.4369 188.751 49.9724 175.26 44.3829C161.77 38.7933 146.925 37.3298 132.603 40.1774C118.28 43.025 105.124 50.0559 94.7978 60.3808C84.4715 70.7057 77.4389 83.8609 74.5894 98.1828C71.7398 112.505 73.2013 127.35 78.789 140.841C84.3767 154.332 93.8397 165.864 105.981 173.977C118.123 182.09 132.397 186.42 147 186.42C166.578 186.417 185.354 178.639 199.199 164.796C213.044 150.953 220.825 132.178 220.83 112.6Z" fill="black"></path><path d="M156.78 126.46C169.913 126.46 180.56 115.813 180.56 102.68C180.56 89.5467 169.913 78.9 156.78 78.9C143.647 78.9 133 89.5467 133 102.68C133 115.813 143.647 126.46 156.78 126.46Z" fill="#1D40AE"></path></svg>