<svg role="img" viewBox="0 0 24 24" xmlns="http://www.w3.org/2000/svg">
  <title>Vehicle History Finder</title>
  <path d="M5.1 10.4 6.6 6.8A2.8 2.8 0 0 1 9.2 5h5.6a2.8 2.8 0 0 1 2.6 1.8l1.5 3.6" fill="none" stroke="#1e40af" stroke-width="1.6" stroke-linejoin="round"/>
  <path d="M4.5 10h15l1.1 2.1v5.2a1.2 1.2 0 0 1-1.2 1.2H18a1.4 1.4 0 0 1-1.4-1.4v-.4H7.4v.4A1.4 1.4 0 0 1 6 18.5H4.6a1.2 1.2 0 0 1-1.2-1.2v-5.2L4.5 10Z" fill="none" stroke="#1e40af" stroke-width="1.6" stroke-linejoin="round"/>
  <path d="M7 14h2.2M14.8 14H17" fill="none" stroke="#1e40af" stroke-width="1.6" stroke-linecap="round"/>
  <path d="M9 7.5h6" fill="none" stroke="#1e40af" stroke-width="1.4" stroke-linecap="round"/>
</svg>
